<svg width="12" height="8" viewBox="0 0 12 8" fill="none" xmlns="http://www.w3.org/2000/svg">
  <path fill-rule="evenodd" clip-rule="evenodd" d="M0.856465 0.580909C0.907566 0.506465 0.989318 0.462402 1.07634 0.462402H2.94255C3.04718 0.462402 3.14251 0.525923 3.18764 0.625706C3.30114 0.876715 3.41146 1.13062 3.52059 1.3818C3.77397 1.96499 4.02098 2.53352 4.28677 3.01707C4.47512 3.35976 4.66304 3.64028 4.85469 3.83947C4.93581 3.92377 5.01452 3.99037 5.09127 4.04071V1.66074L4.53232 0.930037C4.46651 0.844002 4.45332 0.725654 4.49842 0.625813C4.54352 0.525972 4.63888 0.462402 4.74356 0.462402H7.33778C7.48781 0.462402 7.60943 0.590949 7.60943 0.74952V3.43873C7.91972 3.11523 8.16252 2.74654 8.38425 2.35127C8.51189 2.12374 8.63018 1.89189 8.75149 1.65415C8.78081 1.59668 8.8103 1.53887 8.84015 1.48069C8.9919 1.1849 9.15105 0.883024 9.33311 0.591389C9.38339 0.51086 9.46857 0.462402 9.55985 0.462402H11.3473C11.4316 0.462402 11.5111 0.503754 11.5625 0.574334C11.6139 0.644914 11.6314 0.736727 11.6099 0.822856C11.2677 2.19214 10.6016 3.14855 9.96644 4.06053C9.94135 4.09655 9.91631 4.13251 9.89134 4.16842C10.7536 4.98396 11.4447 5.98291 11.9185 7.1009C11.9561 7.18973 11.9486 7.29268 11.8985 7.37437C11.8485 7.45607 11.7626 7.50539 11.6705 7.50539H9.70382C9.63868 7.50539 9.5757 7.48064 9.52638 7.43567C9.31857 7.24619 9.13978 7.03882 8.97498 6.8406C8.94125 6.80003 8.90828 6.76008 8.87581 6.72072C8.74623 6.56366 8.62451 6.41611 8.49346 6.27719C8.24238 6.01102 7.97243 5.79374 7.60943 5.67197V7.21827C7.60943 7.36287 7.50769 7.4849 7.37197 7.5031C5.16627 7.7989 3.6829 6.65282 2.68369 5.18522C1.72334 3.7747 1.18803 2.03844 0.849043 0.93893C0.838541 0.904867 0.828227 0.871414 0.818095 0.838602C0.791097 0.751167 0.805363 0.655353 0.856465 0.580909ZM1.45095 1.03664C1.79198 2.13135 2.29225 3.62719 3.12466 4.84981C4.01 6.15015 5.24874 7.11257 7.06614 6.95941V5.31181C7.06614 5.22811 7.1007 5.14857 7.16077 5.09403C7.22084 5.03948 7.30044 5.01536 7.37873 5.02797C8.06039 5.13783 8.50915 5.48053 8.87819 5.87174C9.02336 6.02563 9.16009 6.19144 9.29074 6.34986C9.32185 6.3876 9.35263 6.42492 9.38309 6.46155C9.52215 6.62882 9.65865 6.78702 9.80719 6.93115H11.2384C10.772 5.97561 10.1305 5.12577 9.34972 4.43191C9.24061 4.33495 9.22097 4.16534 9.30474 4.04343C9.37926 3.93498 9.45374 3.82785 9.52777 3.72135C10.1027 2.89435 10.6509 2.10585 10.9837 1.03664H9.70801C9.5708 1.26726 9.44455 1.50725 9.31775 1.75442C9.28927 1.80993 9.26069 1.86595 9.23194 1.9223C9.11023 2.16088 8.98541 2.40556 8.85158 2.64414C8.51838 3.2381 8.11491 3.8217 7.49538 4.2881C7.41255 4.35045 7.30371 4.35869 7.21332 4.30945C7.12293 4.2602 7.06614 4.16172 7.06614 4.05424V1.03664H5.31252L5.57415 1.37867C5.61324 1.42977 5.63456 1.49348 5.63456 1.55919V4.44472C5.63456 4.52664 5.60145 4.60466 5.54357 4.65914C5.48569 4.71362 5.40854 4.73937 5.33155 4.72992C4.99937 4.68911 4.71549 4.50014 4.47377 4.24891C4.2324 3.99804 4.01607 3.66772 3.817 3.30553C3.53749 2.79702 3.27243 2.18706 3.01396 1.59227C2.93229 1.40432 2.85127 1.21788 2.77066 1.03664H1.45095Z" fill="#110A1D" />
  <path d="M3.12466 4.84981C2.29225 3.62719 1.79198 2.13135 1.45095 1.03664H2.77066C2.85127 1.21788 2.93229 1.40432 3.01396 1.59227C3.27243 2.18706 3.53749 2.79702 3.817 3.30553C4.01607 3.66772 4.2324 3.99804 4.47377 4.24891C4.71549 4.50014 4.99937 4.68911 5.33155 4.72992C5.40854 4.73937 5.48569 4.71362 5.54357 4.65914C5.60145 4.60466 5.63456 4.52664 5.63456 4.44472V1.55919C5.63456 1.49348 5.61324 1.42977 5.57415 1.37867L5.31252 1.03664H7.06614V4.05424C7.06614 4.16172 7.12293 4.2602 7.21332 4.30945C7.30371 4.35869 7.41255 4.35045 7.49538 4.2881C8.11491 3.8217 8.51838 3.2381 8.85158 2.64414C8.98541 2.40556 9.11023 2.16088 9.23194 1.9223C9.26069 1.86595 9.28927 1.80993 9.31775 1.75442C9.44455 1.50725 9.5708 1.26726 9.70801 1.03664H10.9837C10.6509 2.10585 10.1027 2.89435 9.52777 3.72135C9.45374 3.82785 9.37926 3.93498 9.30474 4.04343C9.22097 4.16534 9.24061 4.33495 9.34972 4.43191C10.1305 5.12577 10.772 5.97561 11.2384 6.93115H9.80719C9.65865 6.78702 9.52215 6.62882 9.38309 6.46155C9.35263 6.42492 9.32185 6.3876 9.29074 6.34986C9.16009 6.19144 9.02336 6.02563 8.87819 5.87174C8.50915 5.48053 8.06039 5.13783 7.37873 5.02797C7.30044 5.01536 7.22084 5.03948 7.16077 5.09403C7.1007 5.14857 7.06614 5.22811 7.06614 5.31181V6.95941C5.24874 7.11257 4.01 6.15015 3.12466 4.84981Z" fill="#110A1D" />
</svg>
